/* XPM */
static char *_081cd06e50b4abdce3ebab12ce2eb2fXO5eF0aRdvqQjldt[] = {
/* columns rows colors chars-per-pixel */
"64 64 250 2 ",
"   c None",
".  c gray14",
"X  c #252525",
"o  c gray15",
"O  c #262727",
"+  c #272727",
"@  c #272827",
"#  c #272828",
"$  c #282828",
"%  c gray16",
"&  c #2A2929",
"*  c #2A2A2A",
"=  c #2B2A2A",
"-  c #2B2A2B",
";  c gray17",
":  c #2C2B2B",
">  c #2C2C2C",
",  c #2C2D2D",
"<  c #2D2D2D",
"1  c #2D2E2D",
"2  c gray18",
"3  c #2F2F2F",
"4  c #332F30",
"5  c gray19",
"6  c #313131",
"7  c #323232",
"8  c gray20",
"9  c #353032",
"0  c #363132",
"q  c #363133",
"w  c #373233",
"e  c #343434",
"r  c #353535",
"t  c gray21",
"y  c #373737",
"u  c #383234",
"i  c #393334",
"p  c #3A3335",
"a  c #3C3437",
"s  c #3D3537",
"d  c gray22",
"f  c #393939",
"g  c #3A3A3A",
"h  c gray23",
"j  c #3C3C3C",
"k  c gray24",
"l  c #3E3E3E",
"z  c #3F3F3F",
"x  c #403739",
"c  c #40373A",
"v  c #43393C",
"b  c #453A3D",
"n  c #4C3E42",
"m  c gray25",
"M  c #414141",
"N  c gray26",
"B  c #434343",
"V  c #444444",
"C  c gray27",
"Z  c #464646",
"A  c gray28",
"S  c #494446",
"D  c #484848",
"F  c #494949",
"G  c gray29",
"H  c #4B4B4B",
"J  c #4C4C4C",
"K  c gray30",
"L  c #4E4E4E",
"P  c gray31",
"I  c #504146",
"U  c #505050",
"Y  c #515151",
"T  c gray32",
"R  c #535353",
"E  c gray33",
"W  c #555555",
"Q  c #565656",
"!  c gray34",
"~  c #585858",
"^  c gray35",
"/  c #5A5A5A",
"(  c #5B5B5B",
")  c gray36",
"_  c #5D5D5D",
"`  c gray37",
"'  c #5F5F5F",
"]  c #606060",
"[  c gray38",
"{  c #626262",
"}  c gray39",
"|  c #646464",
" . c #656565",
".. c gray40",
"X. c #676767",
"o. c #686868",
"O. c DimGray",
"+. c #6A6A6A",
"@. c gray42",
"#. c #6C6C6C",
"$. c #6D6D6D",
"%. c gray43",
"&. c #6F6F6F",
"*. c gray44",
"=. c #717171",
"-. c #727272",
";. c gray45",
":. c #747474",
">. c gray46",
",. c #767676",
"<. c #777777",
"1. c gray47",
"2. c #797979",
"3. c gray48",
"4. c #7B7B7B",
"5. c #7C7C7C",
"6. c gray49",
"7. c #7E7E7E",
"8. c gray50",
"9. c #85616C",
"0. c #88646F",
"q. c #8E6773",
"w. c #926975",
"e. c #9D707E",
"r. c #A57583",
"t. c #B37D8E",
"y. c #808080",
"u. c #818181",
"i. c gray51",
"p. c #838383",
"a. c #848484",
"s. c gray52",
"d. c #868686",
"f. c gray53",
"g. c #888888",
"h. c #898989",
"j. c gray54",
"k. c #8B8B8B",
"l. c gray55",
"z. c #8D8D8D",
"x. c #8E8E8E",
"c. c gray56",
"v. c #909090",
"b. c gray57",
"n. c #929292",
"m. c #939393",
"M. c gray58",
"N. c #959595",
"B. c gray59",
"V. c #979797",
"C. c #989898",
"Z. c gray60",
"A. c #9A9A9A",
"S. c gray61",
"D. c #B88091",
"F. c #BA8192",
"G. c #A2A2A2",
"H. c gray64",
"J. c #A4A4A4",
"K. c #A5A5A5",
"L. c #A7A7A7",
"P. c #AAAAAA",
"I. c gray68",
"U. c #AEAEAE",
"Y. c gray69",
"T. c #B1B1B1",
"R. c #B2B2B2",
"E. c gray71",
"W. c #B6B6B6",
"Q. c gray72",
"!. c #B9B9B9",
"~. c gray73",
"^. c #BBBBBB",
"/. c #BCBCBC",
"(. c gray",
"). c #C08597",
"_. c #CE8EA1",
"`. c #D491A5",
"'. c #D491A6",
"]. c #D692A6",
"[. c #D692A7",
"{. c #D793A7",
"}. c #D793A8",
"|. c #D994A9",
" X c #DA94A9",
".X c #DA95AA",
"XX c #EEA1B8",
"oX c #EFA2B9",
"OX c #F0A2B9",
"+X c #F0A2BA",
"@X c #F0A3BA",
"#X c #F1A3BA",
"$X c #F1A3BB",
"%X c #F2A3BB",
"&X c #F3A4BC",
"*X c #F2A5BC",
"=X c #F5A6BE",
"-X c #F6A7BF",
";X c #F8A8C0",
":X c #FCABC4",
">X c #FDABC4",
",X c #FDACC4",
"<X c #FDACC5",
"1X c #FEACC5",
"2X c #FFADC6",
"3X c #C1C1C1",
"4X c #C3C3C3",
"5X c #C6C6C6",
"6X c gray78",
"7X c #C8C8C8",
"8X c #CACACA",
"9X c #CECECE",
"0X c #D0D0D0",
"qX c gray82",
"wX c LightGray",
"eX c #D5D5D5",
"rX c gray84",
"tX c #D7D7D7",
"yX c #D8D8D8",
"uX c gray85",
"iX c #DADADA",
"pX c gray86",
"aX c gainsboro",
"sX c #DDDDDD",
"dX c gray87",
"fX c #DFDFDF",
"gX c gray88",
"hX c #E1E1E1",
"jX c #E2E2E2",
"kX c gray89",
"lX c #E4E4E4",
"zX c gray90",
"xX c #E6E6E6",
"cX c #E7E7E7",
"vX c gray91",
"bX c #E9E9E9",
"nX c #EAEAEA",
"mX c gray92",
"MX c #ECECEC",
"NX c gray93",
"BX c #EEEEEE",
"VX c #EFEFEF",
"CX c gray94",
"ZX c #F1F1F1",
"AX c gray95",
"SX c #F3F3F3",
"DX c #F4F4F4",
"FX c gray97",
"GX c #FDFDFD",
"HX c #FEFEFE",
/* pixels */
"                                                                                                                                ",
"                                                                                                                                ",
"                                                                                                    % + % %                     ",
"                                                                                                    g g g g                     ",
"                                                                                                % 2 T ^ ^ T 2 %                 ",
"                                                                                              % % 2 z A E T 2 %                 ",
"                                                                                            % % % % + 2 E E 2 %                 ",
"                % % % % % %                                                             % % % % % % % 2 E ^ H A 2 %             ",
"                2 2 2 2 2 2                                                             % % % % % % % 2 E ^ ^ E 2 %             ",
"            % e #.:.:.:.:.#.8 % % % % % # % @ + % %                     + % % + % + + % % % % % % % % 8 E ^ ^ T 8 %             ",
"            % e 6.h.h.f.h.6.e % % % 3 2 2 8 2 8 2 2                     2 2 2 8 2 8 2 8 8 2 % % % % % 2 L E ^ E 2 %             ",
"            + 8 6.f.f.f.f.6.e + % 2 P E E E E E E L 2 $ $ % $ % % + % 2 T E T E T T T T T T 2 % + + % % 2 e E E 2 %             ",
"            z A :.6.f.f.h.4.e % % 3 E ^ U L L L ^ E g e e e e y z z e g E ) ^ ^ ^ ^ ]  .^ E g e e 8 % % % 2 T E 2 %             ",
"        % e 4.6.] ) u.h.h.6.e + % 3 E E 8 % % 2 E ^ ^ ^ ! ! ^ ) u.6.) ^ ^ ^ ^ ^ ^ ) u.u.) ^ E ^ ^ T 2 + % 2 E E 8 %             ",
"        + e 4.f.#.#.:.:. .) 8 + % 3 E E 2 % % 2 M A A H ~ ^ ^ ) ;.:.#.o.) ^ ^ ^ o.#.f.u.;.o.^ ) o. .M g % 2 A M % %             ",
"        % 8 4.f.f.f.) T 2 + % % % 2 E R , + @ % % % + 2 E ( ^ ^ ^ ) u.u.) ^ ^ ] f.f.f.f.f.u.) ] f.u.) T 2 + % % % %             ",
"      2 M H 6.h.f.f.;.o.8 % % % % 2 j S 0.w.w.9.4 $ % > j M E ^ ^ ) u.f.;.;.) ^ #.;.f.f.f.u.] ) u.f.;.o.H z 2 % % %             ",
"    % 2 E ] u.h.f.h.f.4.e +     % % % s }.oX+X}.v $ % % % 2 T ~ ^ ) u.f.h.u.] ^ ^ ) 6.f.f.f.) ) u.h.f.f.] E 2 % % %             ",
"    % 8 #.4.o. .o.] H A         % % + v `.XX;X+Xt.r.q # % > e z E ] u.f.f.f.4.:.) ) u.f.f.f.4.4.u.f.f.f.4.#.8 % % %             ",
"    + e 4.u.] ) ) T 2 +         % % + s `.oX1X1X*X.Xn 4 % % % 2 E  .u.f.f.f.h.u.] ] u.f.f.f.f.h.f.f.f.f.f.:.8 % % %             ",
"    % 8 ^  .4.6.6.:.e +         % % # c ].@X1X1X:X=X_.t.s # # 8 :.u.f.f.f.f.f.f.u.6.f.f.f.f.f.f.f.f.h.6.A e % % % %             ",
"    % 2 ^  .6.u.u.4.8 %         % % % s F.`.-X1X1X1X%X}.s @ % e 6.h.f.f.f.f.f.f.h.f.f.f.f.f.f.f.f.f.4.#.8 % % % % %             ",
"    % 8 4.u.] ) ) E 2 %             % : w I .X@X1X1X%X].c % % e 6.f.f.f.f.f.f.f.f.f.f.f.f.f.f.f.f.6.g 8 % % % + % %             ",
"    % e #.4.o. . .) 8 %             % % @ p r.).*X*X).r.p % % e 4.f.f.f.f.f.f.f.f.f.f.f.f.f.f.f.f.6.e % % % M M 2 %             ",
"    % 2 E ] u.f.f.6.e %             % % % % : b .X Xb : @ @ + e 6.f.h.h.h.h.h.h.h.f.f.f.f.f.f.f.f.6.e + % e 4.4.8 +             ",
"    + 8 E ) ;.;.:.o.8 %             % % % % + q q.q.q 2 J U L E u.f.:.;.] ] ]  .u.f.f.f.f.f.f.f.f.u.g % + e x.u.2 %             ",
"    % 2 E ^ E ^ ^ T 2 +                 % % % % # # + q 4.g.g.g.f.u.) T 2 % % e 6.h.f.f.f.f.f.f.f.f.    % z qX  % %             ",
"    % 2 T ) ;.;.;.;.] ^ 8               % % % 2 M B B J 8.g.g.p.;. .A g % % % 2 L ^ 6.x.~.3X3X/.x.u.g % + M eX  % % % % %       ",
"    % 2 E ] u.f.f.f.h.6.e %             % % % 2 E ^ ( ] p.g.g.y.) T 8 % % % % % + 8 4.N.zXSXSXzXN.6.e % % M iX5X% % % % % %     ",
"    % 8 #.6.f.f.o. .o.] L H 2 % + % % % % 2 H L ~ ) :.4.a.g.g.6.M g  .] 8 % % % % e 4.m.zXSXNXNXeX3X^ H H ) dXmXZ.  L H         ",
"    % e 4.u.u.6.) ^ ^ ^ E T 2 % 2 2 2 2 % 2 E ) ) ] a.g.g.g.x.p.g g f.f.A e % % % 8 4.N.hXSXSXNXSXhX:. . .:.eXzXhX  E E         ",
"        e M ) ] ) ^ ^ E e 8 % 8 ;.;.E H 2 8 :.u.u.u.g.g.f.v.eXwXu.u.dXmXhX5Xz % + 8 4.m.hXSXNXSXSXNXdXeXeX8X6.#.H 8 8 8 % %     ",
"        + 2 T ^ ^ E T L 8 8 8 z :.6.] ^ 2 8 :.u.u.u.6.u.f.N.hXmXK.K.SXGXhX5Xz % + e h.K.zXNXhXdXdXhXNXFXSXhX#.T 8 2 % % % %     ",
"        % 8 E ^ ^ T 8 2 L E E E ) ] u.4.e 2 ^ ) ) ) ) ] u.N.zXSXmXNXGXmXT e % % + z qXmXSXzXZ.m.m.Z.hXSXSXNX    E E             ",
"        % 2 H H L H g z E ^ ^ )  .o.f.4.e 2 T ^  . . .o.o.:.I.~.9XeXFXzXL e e z ) :.dXSXSXdX4.o.o.4.hXSXNXSXSX9X) ^             ",
"            % % + 2 T ^ ^ ^ ^ ) u.h.f.4.8 2 T ) u.f.f.4.e % + 8 4.N.zXdXo.E E  .iXNXSXNXSXeXz + + z eXSXSXNXSXhX .^             ",
"            % 2 L T ^ ^ ^ ^ o.#.f.f.:.#.E E o.;.f.f.f.f.u.u.6.f.I.~.mXzXK.Z.Z.K.zXSXNXSXSXhXx.6.6.x.hXSXNXmX~.K.o.              ",
"            % e 6.u.) ^ ^ ) f.h.f.u.) ] u.h.h.h.f.f.f.m.zXSXFXSXSXSXSXSXSXSXSXSXSXNXSXNXSXNXSXSXSXSXSXSXSXdXo.E                 ",
"        % 2 M L u.u.] ) ;.:.f.f.;.o.) ) u.f.f.f.f.f.f.f.N.N.6.4.4.6.m.G.zXSXNXNXNXSXNXSXNXSXNXSXNXSXNXzXG.m.                    ",
"        % 2 E ] u.f.) ] u.f.f.u.) ^ ^ ] u.f.f.f.f.f.f.u.) T 2 + + 2 T #.dXSXNXSXSXNXSXNXSXNXNXNXNXNXNXiX .E                     ",
"        % 8 T ) u.f.6.6.f.f.f.u.) ^ ^ ) f.f.f.f.f.f.f.f.6.:.T H H ) ~.9XNXSXNXSXNXSXNXSXSXhXm.u.u.u.u.u.                        ",
"        % 2 T ] u.f.h.f.f.f.f.u.) ^ ) ] u.f.f.f.u.f.f.f.h.u. .) ^ #.eXmXzXmXzXmXzXmXzXzXzXqX] T E ^ E E                         ",
"        + 8 E ) u.h.f.f.f.f.f.u.] ) 6.u.f.f.f.u. . .u.f.h.h.u.u.u.u.N.N.N.N.N.N.N.N.Z.m.:.o.e 8                                 ",
"        % 2 E ] 4.6.f.f.f.f.f.u.) ] u.h.f.f.h.u.) ) u.f.6.6.6.u.f.f.f.h.f.h.Z.N.h.f.6.4.) E z g                                 ",
"        + 2 T ^ ) ] u.f.f.f.h.u.) ] u.f.f.f.f.u.) ) f.u.] ) )  .u.h.f.f.f.x.dXdXN.u.] ^ ^ ) 6.:.e +                             ",
"        e z E ^ ^ ) f.f.f.f.f.u.] ) u.f.f.f.f.u.o.o.f.u.) ^ ^ ) :.4.4.u.G.Y.mXhXh.:.o. . .#.f.6.M g                             ",
"    % 2 E ^ ^ ^ ^ ] u.f.f.f.f.u.) ) u.f.f.h.f.f.f.f.h.u.] ^ ^ ^ ^ ^ ^ #.dXSXSXhX#.) u.f.f.f.f.6.^ L 2 %                         ",
"    + 8 E ^ ^ ^ ^ ) #.;.f.f.f.h.Z.G.Y.G.x.h.h.f.f.f.f.u.;.#.) ^ ^ E A E iXNX5XI.T T P.~.~.W.W.W.G.m.H z 2                       ",
"    % 2 T ^ ^ ^ ^ ^ ^ ] u.f.f.h.dXFXSX      h.f.f.f.f.f.f.u.) ^ ^ T 2 M iXhXm.4.8 z iXSXNXSXSXSXFXhXo.E 2 %                     ",
"    % 8 o.;.) ) ;.:.:.:.f.f.f.h.    NXNX        h.f.f.f.f.f.:.:.:.o.8 8 #.;.T H % z iXSXSXSXNXNXSXzX/.K.g +                     ",
"    + e 6.f.] ) u.f.h.f.f.f.f.h.    NX          u.f.f.f.f.f.h.h.h.6.e % + + + + % z qXNXNXNXNXSXNXmXFXiXM +                     ",
"    % 2     6.6.f.h.f.f.f.h.        G.h.e 2 % 2 z M     f.h.    h.h.    % +         ^ o.hXSXSXzXP.P.mXiXM +                     ",
"    % 2     h.h.f.h.f.h.f.f.        6.:.8 % % % % +     f.h.    h.x.    8 8         + g 9XmXzXdXm.m.mXiXz +                     ",
"    % %                 h.6.e % % % e e             % 2                 4.;.e %     % e h.N.N.N.        8 +                     ",
"    % %                 :.o.8 % % % + %             % %                 h.4.8 %     % 8 o.:.;.;.        % %                     ",
"    % %                 8 2 % % % % % %             % 8 6.h.                % %         2 2 2 2 % % % %                         ",
"    % %                 % % % % % % % %             % 8 ] o.                % %         % % % % % % % %                         ",
"    % %             % %                                 2 %     h.f.f.h.    % %                                                 ",
"      % 8           %                                   % 2 :.x.f.f.f.    8 %                                                   ",
"        % % % % % %                                     % e 4.f.f.f.    % %                                                     ",
"                                                            H H H A 2 %                                                         ",
"                                                            + + + % % %                                                         ",
"                                                                                                                                ",
"                                                                                                                                "
};
