/* XPM */
static char *_f76ddf773fb49fef2c226cc8b9c1473HdnCvwajhmg7LIpp[] = {
/* columns rows colors chars-per-pixel */
"64 64 162 2 ",
"   c None",
".  c #010101",
"X  c #0A0701",
"o  c #0C0B01",
"O  c #030308",
"+  c #140E01",
"@  c #180F01",
"#  c #0F1000",
"$  c #141300",
"%  c #1B1303",
"&  c #171802",
"*  c #1B1C01",
"=  c #1D1708",
"-  c #241B01",
";  c #2B1D01",
":  c #1F2101",
">  c #242500",
",  c #2D2001",
"<  c #272901",
"1  c #2B2C01",
"2  c #2A2B0B",
"3  c #332603",
"4  c #362901",
"5  c #3A2A01",
"6  c #2F3000",
"7  c #323301",
"8  c #3D3401",
"9  c #373801",
"0  c #3A3C00",
"q  c #3C3D0B",
"w  c #432F02",
"e  c #423301",
"r  c #4F3602",
"t  c #453A02",
"y  c #4F3903",
"u  c #563D02",
"i  c #5A3F02",
"p  c #3E4100",
"a  c #434401",
"s  c #4E4101",
"d  c #474801",
"f  c #4A4B01",
"g  c #5C4502",
"h  c #584F02",
"j  c #4F5101",
"k  c #525301",
"l  c #575901",
"z  c #5B5D01",
"x  c #624603",
"c  c #674803",
"v  c #6D4D03",
"b  c #714E02",
"n  c #605801",
"m  c #695B02",
"M  c #735303",
"N  c #7A5703",
"B  c #745D02",
"V  c #7B5903",
"C  c #5F6103",
"Z  c #606203",
"A  c #666902",
"S  c #6A6C01",
"D  c #766202",
"F  c #7B6502",
"G  c #756B02",
"H  c #7A6D02",
"J  c #6E7101",
"K  c #727501",
"L  c #7D7202",
"P  c #757800",
"I  c #7A7E01",
"U  c #845D03",
"Y  c #8F6503",
"T  c #906603",
"R  c #946D04",
"E  c #9B6E04",
"W  c #957003",
"Q  c #A47504",
"!  c #A57803",
"~  c #AC7A04",
"^  c #B27E04",
"/  c #7E8001",
"(  c #828501",
")  c #868802",
"_  c #8B8D01",
"`  c #8E9101",
"'  c #929501",
"]  c #969A01",
"[  c #9A9E01",
"{  c #B68104",
"}  c #BC8504",
"|  c #9DA101",
" . c #A4A501",
".. c #A6A901",
"X. c #AAAD01",
"o. c #ADB101",
"O. c #B3B601",
"+. c #B5B901",
"@. c #BABE01",
"#. c #C38A04",
"$. c #CE9204",
"%. c #D59704",
"&. c #DA9904",
"*. c #E09E04",
"=. c #E4A105",
"-. c #EBA505",
";. c #EFA805",
":. c #F4AC05",
">. c #FFB405",
",. c #FFB905",
"<. c #BEC301",
"1. c #C1C601",
"2. c #C5C901",
"3. c #C9CE01",
"4. c #CDD201",
"5. c #D2D701",
"6. c #D4D901",
"7. c #D9DE01",
"8. c #DAE001",
"9. c #DDE201",
"0. c #DEE402",
"q. c #DBE101",
"w. c #E0E601",
"e. c #E1E701",
"r. c #E2E801",
"t. c #E3E901",
"y. c #E3E801",
"u. c #E5EB01",
"i. c #E4E901",
"p. c #E6EC01",
"a. c #E7ED01",
"s. c #E5EC01",
"d. c #E4EA01",
"f. c #E9EF01",
"g. c #E8EE01",
"h. c #EBF101",
"j. c #EBF201",
"k. c #EDF301",
"l. c #EEF401",
"z. c #EFF501",
"x. c #EFF601",
"c. c #EDF301",
"v. c #F0F701",
"b. c #F1F701",
"n. c #F2F901",
"m. c #F4FA01",
"M. c #F5FB01",
"N. c #F5FC01",
"B. c #F6FD01",
"V. c #F6FC01",
"C. c #F7FE01",
"Z. c #F5FC01",
"A. c #F8FE01",
"S. c #F8FF01",
"D. c #F9FF01",
"F. c #FAFF01",
"G. c #FBFF01",
"H. c #FCFF01",
"J. c #FDFF01",
"K. c #FEFF01",
"L. c #FFFF01",
"P. c #F9FF01",
/* pixels */
"                                                                                                                                ",
"                                                                                                                                ",
"                                                                                                                                ",
"                                                                                                                                ",
"                                                        O . . . . . . . . . .                                                   ",
"                                                      q z z C C z C z z z z z                                                   ",
"                                                    O d m.V.F.V.G.C.C.G.C.C.g.1 . . . . .                                       ",
"                                                    C | V.F.V.F.C.C.C.C.G.G.n.` K P P P S                                       ",
"                                                  . ..L.C.C.C.C.G.C.G.C.C.G.C.G.G.G.G.L.<.. . . . .                             ",
"                                                1 ` 6.G.C.G.C.G.C.C.C.C.C.C.C.C.C.G.C.G.9.] ' ' ` ' C . .                       ",
"                                              . 7 a.G.C.G.C.C.C.C.C.G.C.C.G.C.C.C.C.C.C.C.G.G.L.L.L./ . .                       ",
"                                                  k 1.G.C.C.C.G.C.G.C.C.C.C.G.C.G.C.G.C.G.C.C.C.C.G.6.` o .                     ",
"                                                  . ..G.C.C.G.C.G.C.C.C.G.C.C.G.C.C.C.G.C.C.C.M.c.c.n.3.* . .                   ",
"                                          O       . ..G.C.G.C.C.C.C.C.G.C.C.C.C.G.C.C.G.C.G.L.o.9 0 9 k O.a .                   ",
"                                          &       * X.L.C.C.C.C.G.C.G.C.G.C.C.C.C.C.t.t.t.t.a.] $ $ $ 0 h.z .                   ",
"                                      O z 2.> . 1 3.c.G.G.C.G.C.C.C.C.C.C.G.G.G.G.8.9 > > > : A 5.5.5.7.n.l .                   ",
"                                      < I a.a > d 3.6.5.6.c.G.C.G.C.C.C.C.h.6.6.6.@.9 > > > > K G.G.G.G.C.l .                   ",
"                                    . o.v.V.u.a.<.> $ $ : 4.L.G.C.G.G.L.L.o.$ $ # 7 4.t.t.t.w.h.C.C.G.G.G.l .                   ",
"                                    a 3.G.C.F.0. .e 5 5 8 | 7.V.C.6.<.<.1.' 0 0 9 l a.G.C.G.G.C.C.G.8.<.<.d .                   ",
"                                . 0 g.V.C.C.L.I 3 *.:.:.=.5 K K.L.K . X . l h.h.l.c.C.C.C.C.C.G.C.L.( . o . .                   ",
"                                a / M.C.G.v.+.L b :.>.>.:.M G X.X.P k j f _ G.G.G.G.C.C.C.C.C.C.n.+.L w . .                     ",
"                              . [ G.C.C.G.0.> U >.>.>.>.>.>.T . . _ C.C.M.C.C.C.C.C.C.C.G.C.G.C.t.< U %.$                       ",
"                            2 A 1.G.C.C.G.0.: U >.>.>.>.>.>.T o z <.G.C.C.C.C.C.C.C.G.C.C.C.C.G.t.> U %.@                       ",
"                            < t.G.G.G.G.L.t.> U >.>.>.>.>.,.Y * 8.G.C.G.C.G.C.G.C.G.C.C.G.C.C.C.t.> V &.@                       ",
"                          l ] c.G.6.I P P S $ U >.>.>.>.>.>.Y * 7.G.C.C.C.C.C.G.C.C.G.C.G.C.C.G.l.] H x X .                     ",
"                        . I L.G.G.+.. . . . . U >.>.>.>.>.>.Y * 8.G.G.C.G.C.C.C.C.G.C.C.C.C.C.G.G.L.I . . . .                   ",
"                      & ` / z C z S | | | _ & U >.>.>.>.>.>.Y * 8.G.C.C.C.G.C.G.C.C.C.C.G.C.G.C.C.G.3.| [ 9 .                   ",
"                      $ 4.( . . . d M.L.L.i.< U >.>.>.>.>.>.Y > 8.G.C.C.C.C.C.C.C.G.C.G.C.C.C.C.C.C.G.G.L.l .                   ",
"                      . 9 / +.+.+.2.C.C.G.v.<.K c :.>.>.:.v G <.c.G.G.C.G.C.G.C.C.C.G.C.C.C.C.C.G.C.G.C.C.l .                   ",
"                      $ o ) L.G.L.G.C.C.C.C.L./ 4 &.;.;.=.5 K L.G.C.C.G.h.h.a.C.C.G.C.C.G.C.G.C.C.h.g.a.a.k .                   ",
"                  O k 3.3.0.G.C.C.C.C.C.G.C.G.w.X.5 , , 4 ..w.C.C.C.G.M.S 1 0 6.G.C.C.C.C.C.G.G.g.f 1 6 6 $ .                   ",
"                  . l G.G.G.C.C.C.G.C.G.C.C.C.G.5.1 * * < 4.L.C.G.C.M.7.k $ , +.h.C.G.C.G.C.G.v.3.8 % $ . . O                   ",
"                  . l C.C.C.C.C.C.G.C.G.C.G.C.G.n.8.8.8.8.n.C.C.C.G.3.1 ! =.%.8 ) G.C.C.C.C.L.X.1 #.*.} +                       ",
"                  . l C.G.C.G.C.C.C.C.C.C.C.C.C.C.G.C.G.G.G.C.G.C.G.1.$ ^ ,.;.; J G.C.G.G.C.7._ w *.;.^ %                       ",
"                  . l L.G.G.G.G.C.G.C.C.C.G.C.C.G.C.C.G.C.C.C.C.C.G.<.o ^ ,.;.; J G.C.G.C.v.f g :.>.U o                         ",
"                  . p +.+.O.1.n.C.C.G.C.C.C.G.C.C.C.C.C.G.C.C.G.G.G.6.j R } ^ h [ G.C.C.C.n.p g >.>.N .                         ",
"                  . . o . . 7 i.G.G.C.G.G.C.C.C.G.C.G.C.C.C.G.C.C.C.C.c.f . $ 2.C.C.C.C.G.v.0 i >.>.V .                         ",
"                    . . y ; < w.C.C.M.O.<.G.G.C.C.C.C.C.C.G.C.C.C.G.C.C._ z A 8.G.C.G.C.C.n.p g >.>.V .                         ",
"                      @ %.U > i.G.G.n.9 C G.G.C.C.C.G.C.C.C.C.C.G.C.C.C.C.G.G.G.G.C.G.C.C.n.0 i >.>.M .                         ",
"                      + %.} B ( 4.8.) F F ` a.G.C.G.C.C.C.G.C.C.C.C.G.C.C.C.C.C.C.C.C.C.G.n.[ G T ;.} b                         ",
"                      @ %.,.&.@ | @.o #.E & 6.G.C.C.C.G.G.G.G.G.G.G.C.C.G.C.C.C.C.C.C.C.C.G.L.| + %.,.%.@                       ",
"                        x { %.% | t.' B F | a.G.G.C.G.4.S A S S A <.G.C.C.C.C.G.C.G.C.G.C.C.G.5._ M v i .                       ",
"                        . V &.@ [ G.n.0 C L.G.C.C.C.G.X.. . . . . ` G.C.C.C.C.C.G.C.C.C.C.G.C.G.a.< . . .                       ",
"                      % R &.&.@ | G.C.@.3.C.C.C.G.C.) m ~ ~ ~ ~ ~ D K v.G.C.G.C.C.C.C.G.C.C.G.C.n.+.X._ $                       ",
"                      @ %.>.$.* | G.C.G.G.G.C.C.C.c.j y >.>.>.>.>.M 7 t.C.C.C.G.C.C.C.C.C.C.C.M.c.n.n.4.&                       ",
"                      $ %.Q s O.t.G.C.G.C.C.C.G.6.d W &.>.>.>.>.>.&.! t <.G.C.C.C.G.G.G.G.G.L.O.0 0 0 9                         ",
"                      + #.M > t.G.G.C.C.C.C.G.c.@.- ^ ,.>.-.=.-.-.>.$.-  .c.C.C.C.C.t.w.t.t.t.' . . . .                         ",
"                  O . . % + > t.G.C.C.G.C.G.G.) t $.:.>.:.u - - - Q >.%.g J G.G.G.8.0 < > < < >                                 ",
"                  . o < > > d a.F.V.F.V.F.V.F.K ; ;.>.:.$.4 . O . U &.%.5 a 4.6.6.+.= . . . . .                                 ",
"                  . k 0.t.t.s.M.F.V.V.F.V.F.J.K ; ;.,.} %         = % & . X & * & &                                             ",
"                  . l G.G.G.C.C.V.F.V.F.F.V.F.K ; ;.&.R o           O O X O O O O O                                             ",
"                  . l C.C.C.G.C.F.V.F.V.V.F.J.J ; :.g O                                                                         ",
"                  . l C.C.C.G.C.V.F.V.F.V.F.F.| h ! u                                                                           ",
"                  . l C.C.C.C.C.F.V.F.V.F.V.F.F.3.&                                                                             ",
"                  . l C.C.C.G.C.V.F.F.V.V.F.F.2.P o                                                                             ",
"                  . l G.G.G.G.G.J.F.F.J.F.F.J.P . .                                                                             ",
"                    a P P P P P P P P P P P P k                                                                                 ",
"                      . . . . . . . . . . . .                                                                                   ",
"                                                                                                                                ",
"                                                                                                                                ",
"                                                                                                                                ",
"                                                                                                                                ",
"                                                                                                                                ",
"                                                                                                                                "
};
