/* XPM */
static char *_0933_bb7febc147cea7ba292542492955becc3a05659e0973b9cfd83dc4a7a3e586b2[] = {
/* columns rows colors chars-per-pixel */
"64 64 224 2 ",
"   c #020203",
".  c #090706",
"X  c #0A0B0B",
"o  c #05080A",
"O  c #130B06",
"+  c #160F0A",
"@  c #190E08",
"#  c #1B110B",
"$  c #030C17",
"%  c #0E1111",
"&  c #07101D",
"*  c #121414",
"=  c #1A1613",
"-  c #1C1B15",
";  c #1D1D1B",
":  c #161719",
">  c #23160E",
",  c #331C0E",
"<  c #211610",
"1  c #211E1A",
"2  c #281B13",
"3  c #311E12",
"4  c #23221B",
"5  c #2D261C",
"6  c #3C2414",
"7  c #3C200F",
"8  c #181C23",
"9  c #041B3A",
"0  c #1D2222",
"q  c #252C2D",
"w  c #272827",
"e  c #343224",
"r  c #36352C",
"t  c #2B3334",
"y  c #2F3839",
"u  c #393D3D",
"i  c #343737",
"p  c #262E30",
"a  c #462918",
"s  c #542E16",
"d  c #583017",
"f  c #5B331A",
"g  c #55311C",
"h  c #4F321E",
"j  c #66381C",
"k  c #4B3526",
"l  c #5D3E2A",
"z  c #573B29",
"x  c #473B32",
"c  c #473A30",
"v  c #422E22",
"b  c #633A21",
"n  c #45412E",
"m  c #4A4631",
"M  c #4C4833",
"N  c #4B4939",
"B  c #534935",
"V  c #59553E",
"C  c #5C462E",
"Z  c #7B4422",
"A  c #76472A",
"S  c #684C38",
"D  c #774C32",
"F  c #684B33",
"G  c #0C2A55",
"H  c #0A346E",
"J  c #2F3F52",
"K  c #394145",
"L  c #3C4B5E",
"P  c #34577D",
"I  c #454A4A",
"U  c #554E48",
"Y  c #555542",
"T  c #5A554A",
"R  c #495658",
"E  c #4C595C",
"W  c #475455",
"Q  c #595959",
"!  c #4B524C",
"~  c #655E43",
"^  c #685F59",
"/  c #686245",
"(  c #696755",
")  c #7D6959",
"_  c #786354",
"`  c #7A7454",
"'  c #706141",
"]  c #505F61",
"[  c #5A6A6C",
"{  c #576365",
"}  c #66696A",
"|  c #726962",
" . c #656E71",
".. c #64777A",
"X. c #66787B",
"o. c #6A7579",
"O. c #72726C",
"+. c #8C4D26",
"@. c #844A26",
"#. c #8F512A",
"$. c #9C5B32",
"%. c #955934",
"&. c #905632",
"*. c #9E613D",
"=. c #AA6135",
"-. c #AA653B",
";. c #A3623A",
":. c #B66A3B",
">. c #C5723F",
",. c #9A6646",
"<. c #827B57",
"1. c #806C5D",
"2. c #A96A44",
"3. c #B76F43",
"4. c #8C796C",
"5. c #C77746",
"6. c #D37E4A",
"7. c #878059",
"8. c #89825B",
"9. c #918A5F",
"0. c #948966",
"q. c #9B9A77",
"w. c #989776",
"e. c #908B72",
"r. c #A59D6D",
"t. c #AB8F79",
"y. c #AD907B",
"u. c #A9A579",
"i. c #BBB27C",
"p. c #B8AF79",
"a. c #DC8A58",
"s. c #CF8354",
"d. c #EA935E",
"f. c #DF9263",
"g. c #F59E69",
"h. c #E99664",
"j. c #FDA671",
"k. c #FCA46E",
"l. c #134790",
"z. c #0F4EA4",
"x. c #1251A8",
"c. c #1251A7",
"v. c #1859B3",
"b. c #355483",
"n. c #6C7D80",
"m. c #747F81",
"M. c #4A76A2",
"N. c #1E64C7",
"B. c #2266C6",
"V. c #256ED5",
"C. c #2872DC",
"Z. c #6E8285",
"A. c #718689",
"S. c #758A8D",
"D. c #788689",
"F. c #7B8F93",
"G. c #7E9193",
"H. c #6A8093",
"J. c #859699",
"K. c #86989B",
"L. c #899A9C",
"P. c #859496",
"I. c #959A9A",
"U. c #8F8A85",
"Y. c #AC9686",
"T. c #A8A781",
"R. c #BDB684",
"E. c #B5A69A",
"W. c #BDBC92",
"Q. c #919EA1",
"!. c #9EAAAC",
"~. c #94A3A5",
"^. c #A3A7A7",
"/. c #A4AFB1",
"(. c #A6B1B3",
"). c #B0B0B1",
"_. c #C3A38A",
"`. c #C7A88E",
"'. c #C3BA84",
"]. c #C8AA93",
"[. c #CEB29C",
"{. c #D1B49F",
"}. c #CABAAD",
"|. c #D2B7A1",
" X c #D4BAA5",
".X c #CEC58A",
"XX c #CBC186",
"oX c #D1C78A",
"OX c #D4CA8C",
"+X c #D5CD91",
"@X c #DBD59C",
"#X c #CDCA9A",
"$X c #D3D2A3",
"%X c #DEDCA7",
"&X c #DBC4B1",
"*X c #DAC7B8",
"=X c #D9D5B0",
"-X c #E1DDA7",
";X c #E3CEBE",
":X c #DCE1B6",
">X c #E6E2A9",
",X c #EAE7AF",
"<X c #EDECB6",
"1X c #EFEEB8",
"2X c #E7E6B3",
"3X c #F0EFB8",
"4X c #F2F1BA",
"5X c #E0DA9E",
"6X c #89B9CB",
"7X c #C4C4C4",
"8X c #DCDCDA",
"9X c #D8D7D5",
"0X c #E6D4C5",
"qX c #E8D5C6",
"wX c #ECD9CA",
"eX c #E8D8CA",
"rX c #EBD9CB",
"tX c #EEE2D8",
"yX c #E2E2E2",
"uX c #F2EBE5",
"iX c #F6F2EE",
"pX c #FDFDFD",
"aX c #F7F7F5",
"sX c None",
/* pixels */
"sXsXsXX o sXsXsXsXsXsXsXsXsXsXsXsXsXsXsXsXsXsXsXsXsXsXsXsXsXsXsXsXsXsXsXsXsXsXsXsXsXsXsXsXsXsXsXsXsXsXsXsXsXsXsXsXsXsXsXsXsXsXsX",
"sXsXsX* 4.x sXsXsXsXsXsXsXsXsXsXsXsXsXsXsXsXsXsXsXsXsXsXsXsXsXsXsXsXsXsXsXsXsXsXsXsXsXsXsXsXsXsXsXsXsXsXsXsXsXsXsXsXsXsXsXsXsXsX",
"sXsXsXX }.| r sXsXsXsXsXsXsXsXsXsXsXsXsXsXsXsXsXsXsXsXsXsXsXsXsXsXsXsXsXsXsXsXsXsXsXsXsXsXsXsXsXsXsXsXsXsXsXsXsXsXsXsXsXsXsXsXsX",
"sXsXsX  sXwXU.. sXsXsXsXsXsXsXsXsXsXsXsXsXsXsXsXsXsXsXsXsXsXsXsXsXsXsXsXsXsXsXsXsXsXsXsXsXsXsXsXsXsXsXsXsXsXsXsXsXsXsXsXsXsXsXsX",
"sXsXsX  sXwXU.X sXsXsXsXsXsXsXsXsXsXsXsXsXsXsXsXsXsXsXsXsXsXsXsXsXsXsXsXsXsXsXsXsXsXsXsXsXsXsXsXsXsXsXsXsXsXsXsXsXsXsXsXsXsXsXsX",
"sXsXsX  sXwX}.e.w sXsXsXsXsXsXsXsXsXsXsXsXsXsXsXsXsXsXsXsXsXsXsXsXsXsXsXsXsXsXsXsXsXsXsXsXsXsXsXsXsXsXsXsXsXsXsXsXsXsXsXsXsXsXsX",
"sXsXsX  sXsXwX*X| r sXsXsXsXsXsXsXsXsXsXsXsXsXsXsXsXsXsXsXsXsXsXsXsXsXsXsXsXsXsXsXsXsXsXsXsXsXsXsXsXsXsXsXsXsXsXsXsXsXsXsXsXsXsX",
"sXsXsX  sXsXtXqX0XU   sXsXsXsXsXsXsXsXsXsXsXsXsXsXsXsXsXsXsXsXsXsXsXsXsXsXsXsXsXsXsXsXsXsXsXsXsXsXsXsXsXsXsXsXsXsXsXsXsXsXsXsXsX",
"sXsXsX  sXaXuX0X0XU   sXsXsXsXsXsXsXsXsXsXsXsXsXsXsXsXsXsXsXsXsXsXsXsXsXsXsXsXsXsXsXsXsXsXsXsXsXsXsXsXsXsXsXsXsXsXsXsXsXsXsXsXsX",
"sXsXsX: 9XaXuXqX0XE.|   sXsXsXsXsXsXsXsXsXsXsXsX      X sXsXsXsXsXsXsXsXsXsXsXsXsXsXsXsXsXsXsXsXsXsXsXsXsXsXsXsXsXsXsXsXsXsXsXsX",
"sXsXsX0 9XaXuXtX0XrXE.x sXsXsXsXsXsXsXsXsXsXsXsXY Y T Y sXsXsXsXsXsXsXsXsXsXsXsXsXsXsXsXsXsXsXsXsXsXsXsXsXsXsXsXsXsXsXsXsXsXsXsX",
"sXsXsX- 8XaXaXaXeX0X Xt.- sXsXsXsXsXsXsXsXsXsX; $X3X3X%Xr sXsXsXsXsXsXsXsXsXsXsXsX- 1 4 4 4 4 w sXsXsXsXsXsXsXsXsXsXsXsXsXsXsXsX",
"sXsXsX; 8XaXaXaXrX X`.y.1 sXsXsXsXsXsXsXsXsXsX4 $X1X1X<X$XY   sXsXsXsXsXsXsXsX  . e.$X$X@X$X$XW.4   X sXsXsXsXsXsXsXsXsXsXsXsXsX",
"sXsXsX; 8XaXiXrX X`._.y.1 sXsXsXsXsXsXsXsXsXsXX N Y e.4X3Xp./ X sXsXsXsXsXsXN q.q.$X4X3X3X3X3X2XT.q.`   sXsXsXsXsXsXsXsXsXsXsXsX",
"sXsXsX0 8XiXtX;X`._._.y.: sXsXsXsXsXsXsXsXsXsX. k a S u.@X5X7.  sXsXsXsXsX  Y 4X4X3X<X>X>X>X2X3X4XtXW.Y sXsXsXsXsXsXsXsXsXsXsXsX",
"sXsXsX; 7XeXqX0X]._._.y.= sXsXsXsXsXsXsXsXsXsX< f.a.@.5 r..X9.- sXsXsXsXsX- ( 1X3X<X@Xi.i.p..X<X3X3X3X$X4 sXsXsXsXsXsXsXsXsXsXsX",
"sXsXsXsXw Y.wXqX0X[.Y.t.< sXsXsXsXsXsXsXsXsXsX< f.k.a.$.6 9.XXr.-     o   e.:X1X4X@X9.- - = ~ +X,X3X4X@X4 sXsXsXsXsXsXsXsXsXsXsX",
"sXsXsXsX  U.wX0X0X|._._.1.c sXsXsXsXsXX o sXsXsXC 2.6.:.@.C n V w.q.q.q.q.@X4X<X5X7.C Z Z Z F V OX,X,X'.1 sXsXsXsXsXsXsXsXsXsXsX",
"sXsXsXsXX | E.qX0X|._._.`.c   sXsXsXv l l v sXsX  s A A @.V Y ( %X4X4X4X4X3X3X>X0.C Z >.s.a.=.h <.#X>X'.V e sXsXsXsXsXsXsXsXsXsX",
"sXsXsXsXsXX T qX0X|._._._.c   sXsX% l g.g.z . ; 4 - 4 0 w T.4X4X3X%X%X3X3X<X3X$Xr A :.>.g.k.d.=.# q.>XoX.XM   sXsXsXsXsXsXsXsXsX",
"sXsXsXsXsXX U qX0X0X X_._.x   sXsXo a 5.5.a N @X$X$X$X$X$X2X4X4X1X( ( 3X<X<X<X2Xi.B d >.g.j.d.-.- q.>XOXoXM   sXsXsXsXsXsXsXsXsX",
"sXsXsXsXsXsXi ^ *XqX&X_._.x X sXsXsX3 a a ` W.3X1X1X<X1X3X3X1X:X6XP  .3X<X<X3X<X,Xu.' f 5.g.h.-.- 9.+XoXoXM   sXsXsXsXsXsXsXsXsX",
"sXsXsXsXsXsXsX: }.wX&X_._.c   sXsXsXsXX N W.4X<X1X<X<X1X<X1X3X:XH.l.H.<X<X<X3X3X3X>Xu.M A 5.a.-.# 7.OXoXOXM   sXsXsXsXsXsXsXsXsX",
"sXsXsXsXsXsXsX1 E.0X&X]._.B = sXsXsXsX; $X3X<X<X1X<X4X1X1X3X<X:XM.b.F.<X<X3X3X3X3X4X,Xi.e D :.=.# 7.OXoXi.M   sXsXsXsXsXsXsXsXsX",
"sXsXsXsXsXsXsXsXw Y.qX;X`.Y._ . sXsXsX1 $X3X<X1X<X1X3X1X3X<X3X1X:X=X:X<X3X3X3X<X1X1X1X>Xi.B g =.# 7.+Xi.e sXsXsXsXsXsXsXsXsXsXsX",
"sXsXsXsXsXsXsXsX  U.wX;X`.`.1.  sXsXsX- %X4X3X<X3X1X1X1X3X<X3X<X1X1X<X3X3X3X3X3X1X1X1X<X+Xr.' 6 . 7.+Xi.- sXsXsX    sXsXsXsXsXsX",
"sXsXsXsXsXsXsXsXX | E.;X`._.)   sXsXsX4 e.q.W.3X3X3X3X1X3X3X<X<X:X3X3X3X3X3X3X3X1X1X1X<XOXOXr.M M r.i.<.4 sXsXsX. 6 C sXsXsXsXsX",
"sXsXsXsXsXsXsXsXsX  U ;X].`.)   sXsXsXsXo + T $X$X2X3X1X3X<X<X3XtX3X3X3X<X<X3X3X1X1X1X,X+XoXoXoXoXOX8.  sXsXsXsX. ,.,.2 sXsXsXsX",
"sXsXsXsXsXsXsXsXsX  U qX;X{.)   sXsXsXsX  ` 7.4 4 u.3X<X<X<X<X<X<X3X3X3X3X3X3X<X<X4X>XOXoXoXoXoXoXOX7.. sXsXsXsXsX= S s.< sXsXsX",
"sXsXsXsXsXsXsXsXsXsXi ^ &X X)   sXsXsXsXsXm / <.7.( V ( :X4X4X4X1X3X<X3X3X<X<X<X<X>XOXoXoXoXoXoXOX<.n sXsXsXsXsXsX  l h.< sXsXsX",
"sXsXsXsXsXsXsXsXsXsXsX- }.Y.x o sXsXsXsXsX  m OXOX` n V e.w.w.u.2X1X3X<X3X3X2X-X>XOXoXoXOXOXOXXX0.M sXsXsXsXsXsXsXsXz ,.S v sXsX",
"sXsXsXsXsXsXsXsXsXsXsX- E.~ + + # .   sXsX; V i..X.XOXi.e - - e $X<X<X,X<X2X%XoXoXoXoXoXi.i.i.r.4 sXsXsXsXsXsXsXsXsXsX2 f.l o sX",
"sXsXsXsXsXsXsXsXsX      - D %.A Z 2       I.I.e i.oXoXXXi.p.p.i.oXOX+X+X+X+XoXoXoXoXOXi.e = < 4 X   . sXsXsXsXsXsXsXsX2 f.l   sX",
"sXsXsXsXsXsXsXsXsX  2 A j k 6 , , T o. .E Q O.I.V r.+XOXOXOXOXOXoXoXoXoX.X.XoXoXOXOXr.B A j f f f f a X sXsXsXsXsXsXsX< f.l   sX",
"sXsXsXsXsXsXsXsXsX  3 A b r t q   o.)./.F.I Q I.{ ` 7.9.XXoXoXoXoXoXoXoX.XoXOXOXOXr.' h $.&.+.+.+.+.j 3 sXsXsXsXsXsXsX< f.l o sX",
"sXsXsXsXsXsXsXsXsX      * ] A...*  .(.!.X.Z.E q }.} ; e r.XXoXoXoXoXoXoXoX'.i.i.'.m a 2.#.+.@.Z @.@.+.Z O sXsXsXsXsXsX< f.l   sX",
"sXsXsXsXsXsXsXsXsXsXsX% { Z.A...* O.~.n.w ] Z.[ p I.yX7Xr 0.OXoXoXoXoX.XoXV - e i.M a 2.+.@.j O O j +.Z O sXsXsXsXsXsX< f.l   sX",
"sXsXsXsXsXsXsXsXsXsXsX: P.~.K...* o.D.y R X.A.X.% y I.aX).( m m m m m m M ! R W N F &.&.+.s k 1._ k s @.j 3 sXsXsXsXsX< f.l o sX",
"sXsXsXsXsXsXsXsXsXsXsX: I.!.K.X.* I { u n.A.A.X.* r | ^.^.i X q p p q p p [ S...* D :.+.j k ) |.|.) k j @.,   sXsXsXsX< f.l   sX",
"sXsXsXsXsXsXsXsXsXsXsX: L.K.S.X.8 % y n.A.A.S.X.* q.T.- - + y S.S.S.S.A.A.A.A...: D -.j O 1.|.0XqX|.) O Z ,   sXsXsXsX= a.z X sX",
"sXsXsXsXsXsXsXsXsXsXsX* X.~.!.~.n.X.R 8 X.A.P.K.; q.<X#XR.c u !.!.!.Q.A.A.A.A.X.- A -.Z O 1.{.0XqX|.1.@ Z ,   sXsXsXsX# -.h X sX",
"sXsXsXsXsXsXsXsXsXsXsXsXp D.!.G.S.S.R % ..L.o.I <.'.@X5XOXm u /././.!.~.Q.G.[ u F #.&.Z O 4.;X0XqX|.1.O Z j a . sXsXz 2.3.h o sX",
"sXsXsXsXsXsXsXsXsXsXsXsX  { Q.P.K.F.R % X.~.o.# ` 9.8.8.7.5 u (././././.(.K.R + *.$.Z d c E.qX0X&X[.0.c f Z f   sX  l j.5.a   sX",
"sXsXsXsXsXsXsXsXsXsXsXsX  W P./.^.J.R % [ J.}     X X   .   K Q././././.!.J.R + *.$.d = Y. XqX*X`._._.y.# f f   sX# S h.:.a X sX",
"sXsXsXsXsXsXsXsXsXsXsXsXsX* I ^.F.S.R   % : : sXsXsXsXsXsXsXsXq Q./.(.!.G.S.R # *.$.d # y.=X0X0X`._._.t.= f f   o ,.a.:.3 sXsXsX",
"sXsXsXsXsXsXsXsXsXsXsXsXsXsXt K t t q sXsXsXsXsXsXsXsXsXsXsXsX* A.G.K.G.S.S.R + *.$.d = t.&X;X]._._._.t.= f f @ ,.5.6.=.O sXsXsX",
"sXsXsXsXsXsXsXsXsXsXsXsXsXsXsX  . . sXsXsXsXsXsXsXsXsXsXsXsXsX: ! R R R E E y + *.$.d = y.&X&X_._._._.t.= f f # s.6.=.Z < sXsXsX",
"sXsXsXsXsXsXsXsXsXsXsXsXsXsXsXsXsXsXsXsXsXsXsXsXsXsXsXsXsXsXsXsXX X $ $ $ $ o + *.$.d # t.&X&XR._._._.t.= f f + =.-.A   sXsXsXsX",
"sXsXsXsXsXsXsXsXsXsXsXsXsXsXsXsXsXsXsXsXsXsXsXsXsXsXsXsXsXsXsXsX  H l.l.l.l.G O *.$.d # t.&X X_._._.`.y.= l f @ =.d # sXsXsXsXsX",
"sXsXsXsXsXsXsXsXsXsXsXsXsXsXsXsXsXsXsXsXsXsXsXsXsXsXsXsXsXsXsX8 l.v.N.N.x.z.H @ *.$.d # y.[.[._._.Y.`.y.1 j f . 6 3 sXsXsXsXsXsX",
"sXsXsXsXsXsXsXsXsXsXsXsXsXsXsXsXsXsXsXsXsXsXsXsXsXsXsXsXsXsXsX& N.C.C.V.x.z.H @ *.$.j a _ t._._._._.t.1.a j f     sXsXsXsXsXsXsX",
"sXsXsXsXsXsXsXsXsXsXsXsXsXsXsXsXsXsXsXsXsXsXsXsXsXsXsXsXsXsXsX& B.V.V.N.x.z.H = %.%.+.Z O 1._._._._.1.O Z @.s . sXsXsXsXsXsXsXsX",
"sXsXsXsXsXsXsXsXsXsXsXsXsXsXsXsXsXsXsXsXsXsXsXsXsXsXsXsXsXsXsX: B.v.x.x.z.z.z.l.8 D ;.Z O 1._._._.`.1.O Z 7 O sXsXsXsXsXsXsXsXsX",
"sXsXsXsXsXsXsXsXsXsXsXsXsXsXsXsXsXsXsXsXsXsXsXsXsXsXsXsXsXsXG l.B.v.l.9 9 9 H l.$ A =.Z O 1._._._.`.1.O Z ,   sXsXsXsXsXsXsXsXsX",
"sXsXsXsXsXsXsXsXsXsXsXsXsXsXsXsXsXsXsXsXsXsXsXsXsXsXsXsXsX  G V.N.l.J E Q ^ L G o D =.@.7 ~ 4._._.4.~ 7 Z , . sXsXsXsXsXsXsXsXsX",
"sXsXsXsXsXsXsXsXsXsXsXsXsXsXsXsXsXsXsXsXsXsXsXsXsXsXsXsXsX. G B.z.9 Q aXaXpX).8 8 D $.#.+.a x t.t.c 7 +.Z ,   sXsXsXsXsXsXsXsXsX",
"sXsXsXsXsXsXsXsXsXsXsXsXsXsXsXsXsXsXsXsXsXsXsXsXsXsXsXo o   9 c.z.9 Q pXpXpXaX8X8XQ a 2.+.@.f = = f @.Z > sXsXsXsXsXsXsXsXsXsXsX",
"sXsXsXsXsXsXsXsXsXsXsXsXsXsXsXsXsXsXsXsXsXsXsXsX    i  .E E K 9 9 n.7XpXpXpXpXiXO.: a 3.+.@.Z d d Z +.Z O sXsXsXsXsXsXsXsXsXsXsX",
"sXsXsXsXsXsXsXsXsXsXsXsXsXsXsXsXsXsXsXsXsXsXsXsXu u } (.K.F.[ w o ^.pXpXpX7X^.P.I t x D %.#.+.+.#.+.Z s # sXsXsXsXsXsXsXsXsXsXsX",
"sXsXsXsXsXsXsXsXsXsXsXsXsXsXsXsXsXsXsXsXsXsXsXw I.(././.(.K.S...% I.pXpXyXQ + w Q.L.{ 5 &.#.Z Z Z Z s . sXsXsXsXsXsXsXsXsXsXsXsX",
"sXsXsXsXsXsXsXsXsXsXsXsXsXsXsXsXsXsXsXsXsX  u L././././././.L...% ^.pXyXu  .I.I././.K.[ 1 O O O O O @ sXsXsXsXsXsXsXsXsXsXsXsXsX",
"sXsXsXsXsXsXsXsXsXsXsXsXsXsXsXsXsXsXsXsXsX  y J.J.J.J.J.J.K.J.X.% U.pXyX0 { L.L.K.K.G.Z.] E y   sXsXsXsXsXsXsXsXsXsXsXsXsXsXsXsX",
"sXsXsXsXsXsXsXsXsXsXsXsXsXsXsXsXsXsXsXsXsX  ; R R R R E E E W L X sXsX7X: y E E R W R R E E y   sXsXsXsXsXsXsXsXsXsXsXsXsXsXsXsX",
"sXsXsXsXsXsXsXsXsXsXsXsXsXsXsXsXsXsXsXsXsXX             .         sXsXsX    X .                 sXsXsXsXsXsXsXsXsXsXsXsXsXsXsXsX"
};
