/* XPM */
static char *_8212_fef7e26dd15d437501cb29d2e2d4b074637f3674418d5017c328560a1a812827[] = {
/* columns rows colors chars-per-pixel */
"64 64 190 2 ",
"   c #150E35",
".  c #15113D",
"X  c #15092D",
"o  c #16194E",
"O  c #151342",
"+  c #161D56",
"@  c #161E59",
"#  c #16215F",
"$  c #221F69",
"%  c #321D79",
"&  c #162262",
"*  c #18266B",
"=  c #1A2974",
"-  c #1C2B7B",
";  c #192770",
":  c #26267D",
">  c #2B237C",
",  c #23297E",
"<  c #202471",
"1  c #361F80",
"2  c #1D2E81",
"3  c #1F3087",
"4  c #1F3089",
"5  c #2B2683",
"6  c #222B83",
"7  c #2C2B8D",
"8  c #252D89",
"9  c #332283",
"0  c #20318D",
"q  c #292E91",
"w  c #322D97",
"e  c #223493",
"r  c #24369B",
"t  c #24389E",
"y  c #2B3298",
"u  c #263AA4",
"i  c #273CAA",
"p  c #293DAE",
"a  c #283AA6",
"s  c #2A3FB3",
"d  c #2A40B5",
"f  c #2C42BB",
"g  c #2763B4",
"h  c #2D45C3",
"j  c #2F47C9",
"k  c #2F4BCA",
"l  c #3047CE",
"z  c #3049CD",
"x  c #3042C2",
"c  c #314BD3",
"v  c #334EDC",
"b  c #3352DD",
"n  c #305AD7",
"m  c #2B5BC9",
"M  c #2B64CE",
"N  c #2B6CDE",
"B  c #2D63D0",
"V  c #2E71DE",
"C  c #287EDF",
"Z  c #3373DD",
"A  c #344FE0",
"S  c #2F5EE0",
"D  c #3352E0",
"F  c #335AE2",
"G  c #2E64E0",
"H  c #2C69E1",
"J  c #3263E4",
"K  c #316CE6",
"L  c #2774E0",
"P  c #2A73E2",
"I  c #247EE0",
"U  c #2E7AE4",
"Y  c #2F75E8",
"T  c #3071E7",
"R  c #4D73D9",
"E  c #5471D8",
"W  c #4963DB",
"Q  c #7763D4",
"!  c #747CDD",
"~  c #7A74DB",
"^  c #6B64D5",
"/  c #407BE0",
"(  c #9A53CF",
")  c #9754CF",
"_  c #8C5ED3",
"`  c #915ED2",
"'  c #856BD5",
"]  c #816CD8",
"[  c #8664D6",
"{  c #218EBE",
"}  c #1F8CDF",
"|  c #2289C1",
" . c #2498CE",
".. c #238ADF",
"X. c #2380DF",
"o. c #3F87DD",
"O. c #299BDF",
"+. c #26A6DD",
"@. c #1F8DE0",
"#. c #1F92E2",
"$. c #1E9FE1",
"%. c #2283E0",
"&. c #2C85E3",
"*. c #218DE0",
"=. c #2C8AE3",
"-. c #2C82E9",
";. c #2B8AEC",
":. c #2393E3",
">. c #2893E2",
",. c #209CE6",
"<. c #299EE6",
"1. c #2393E8",
"2. c #2C90EC",
"3. c #229BE9",
"4. c #1FA9E5",
"5. c #1EBAE3",
"6. c #21A5E7",
"7. c #24A5EB",
"8. c #21ACED",
"9. c #29A5E9",
"0. c #26B3E4",
"q. c #24B4EB",
"w. c #2BB3EB",
"e. c #21BBED",
"r. c #21BBE3",
"t. c #3EB8E9",
"y. c #24A7F0",
"u. c #22B3F1",
"i. c #26BBF2",
"p. c #25BDFA",
"a. c #2CB9F4",
"s. c #3AB8F3",
"d. c #35AAF3",
"f. c #4A80DD",
"g. c #7180DF",
"h. c #7289D7",
"j. c #6A83D8",
"k. c #5DA4DB",
"l. c #50B0DD",
"z. c #5488E2",
"x. c #4390E4",
"c. c #569BE9",
"v. c #5898E5",
"b. c #6985E2",
"n. c #43A1E5",
"m. c #4CA5E6",
"M. c #4BA4ED",
"N. c #4DA8EF",
"B. c #55A1E6",
"V. c #50BAF2",
"C. c #47B7E3",
"Z. c #6BB5EC",
"A. c #1ED4E6",
"S. c #1FD3EB",
"D. c #1DDBEA",
"F. c #23CCE6",
"G. c #23CAEB",
"H. c #25C6E9",
"J. c #29DEE6",
"K. c #21D9EC",
"L. c #34D2E9",
"P. c #22CBF4",
"I. c #24CCFB",
"U. c #2CCDFD",
"Y. c #29C4F9",
"T. c #33C5F9",
"R. c #21D4F2",
"E. c #20DFF3",
"W. c #25D4FF",
"Q. c #2BD4FF",
"!. c #22DCF8",
"~. c #3DD8FF",
"^. c #30D5FF",
"/. c #1FEDEB",
"(. c #1EF4EE",
"). c #1FEAF0",
"_. c #20E2ED",
"`. c #27E5E6",
"'. c #22E3F8",
"]. c #20E5F2",
"[. c #4CDBFE",
"{. c #6BDEFB",
"}. c #6CE2FF",
"|. c #80C2F4",
" X c #96E7FE",
".X c #DBEEF7",
"XX c #C5F4FF",
"oX c #C5E4F8",
"OX c #E3EDF2",
"+X c None",
/* pixels */
"+X+X+X+X+X+X+X+X+X+X+X+X+X+X+X+X+X+X+X+X+X+X+X+X+X+X+X+X+X+X+X+X+X+X+X+X+X+X+X+X+X+X+X+X+X+X+X+X+X+X+X+X+X+X+X+X+X+X+X+X+X+X+X+X",
"+X+X+X+X+X+X+X+X+X+X+X+X+X+X+X+X+X+X+X+X+X+X+X+X+X+X+X+X+X+X+X+X+X+X+X+X+X+X+X+X+X+X+X+X+X+X+X+X+X+X+X+X+X+X+X+X+X+X+X+X+X+X+X+X",
"+X+X+X+X+X+X+X+X+X+X+X+X+X+X+X+X+X+X+X+X+X+X+X+X+X+X+X+X+X+X+X+X+X+X+X+X+X+X+X+X+X+X+X+X+X+X+X+X+X+X+X+X+X+X+X+X+X+X+X+X+X+X+X+X",
"+X+X+X+X+X+X+X+X+X+X+X+X+X+X+X+X+X+X+X+X+X+X+X+X+X+X+X+X+X+X+X+X+X+X+X+X+X+X+X+X+X+X+X+X+X+X+X+X+X+X+X+X+X+X+X+X+X+X+X+X+X+X+X+X",
"+X+X+X+X+X+X+X+X+X+X+X+X+X+X+X+X+X+X+X+X+X+X+X+X+X+X+XW.W.W.W.W.+X+X+X+X+X+X+X+X+X+X+X+X+X+X+X+X+X+X+X+X+X+X+X+X+X+X+X+X+X+X+X+X",
"+X+X+X+X+X+X+X+X+X+X+X+X+X+X+X+X+X+X+X+X+X+X+X+X+X+XQ.W.W.W.Q.~.Q.+X+X+X+X+X+X+X+X+X+X+X+X+X+X+X+X+X+X+X+X+X+X+X+X+X+X+X+X+X+X+X",
"+X+X+X+X+X+X+X+X+X+X+X+X+X+X+X+X+X+X+X+X+X+X+X+X+X+XQ.W.W.I.}.XX~.u.+X+X+X+X+X+X+X+X+X+X+X+X+X+X+X+X+X+X+X+X+X+X+X+X+X+X+X+X+X+X",
"+X+X+X+X+X+X+X+X+X+X+X+X+X+X+X+X+X+X+X+X+X+X+X+X+X+X+X+X+X7.T. X~.I.7.+X+X+X+X+X+X+X+X+X+X+X+X+X+X+X+X+X+X+X+X+X+X+X+X+X+X+X+X+X",
"+X+X+X+X+X+X+X+X+X+X+X+X+X+X+X+X+X+X+X+X+X+X+X+X+X+X+X+X*.@.,.a.W.W.,...+X+X+X+X+X+X+X+X+X+X+X+X+X+X+X+X+X+X+X+X+X+X+X+X+X+X+X+X",
"+X+X+X+X+X+X+X+X+X+X+X+X+X+X+X+X+X+X+X+X+X+X+X+X+X+X+X*.*.@.@.#.P.(.4...+X+X+X+X+X+X+X+X+X+X+X+X+X+X+X+X+X+X+X+X+X+X+X+X+X+X+X+X",
"+X+X+X+X+X+X+X+X+X+X+X+X+X+X+X+X+X+X+X+X+X+X+X+X+X+X+X+X*.@.@.I -._.S.#.} ..+X+X+X+X+X+X+X+X+X+X+X+X+X+X+X+X+X+X+X+X+X+X+X+X+X+X",
"+X+X+X+X+X+X+X+X+X+X+X+X+X+X+X+X+X+X+X+X+X+X+X+X+X+X+X:.*.%.I G D q.(.e.} :.+X+X+X+X+X+X+X+X+X+X+X+X+X+X+X+X+X+X+X+X+X+X+X+X+X+X",
"+X+X+X+X+X+X+X+X+X+X+X+X+X+X+X+X+X+X+X+X+X+X+X+X+X+X>.} X.S D D A 2.(.F.#.#.+X+X+X+X+X+X+X+X+X+X+X+X+X+X+X+X+X+X+X+X+X+X+X+X+X+X",
"+X+X+X+X+X+X+X+X+X+X+X+X+X+X+X+X+X+X+X+X+X+X+X+X+X+X*.@.H D D b D F i.].3.} *.+X+X+X+X+X+X+X+X+X+X+X+X+X+X+X+X+X+X+X+X+X+X+X+X+X",
"+X+X+X+X+X+X+X+X+X+X+X+X+X+X+X+X+X+X+X+X+X+X+X+X+X*.@.L D A A b v v U _.&.%.#.+X+X+X+X+X+X+X+X+X+X+X+X+X+X+X+X+X+X+X+X+X+X+X+X+X",
"+X+X+X+X+X+X+X+X+X+X+X+X+X+X+X+X+X+X+X+X+X+X+X+X+X*.%.D A D v v c l V ].<.%.@.+X+X+X+X+X+X+X+X+X+X+X+X+X+X+X+X+X+X+X+X+X+X+X+X+X",
"+X+X+X+X+X+X+X+X+X+X+X+X+X+X+X+X+X+X+X+X+X+X+X+X+X*.H K F A z h h f m G.R.*.@.+X+X+X+X+X+X+X+X+X+X+X+X+X+X+X+X+X+X+X+X+X+X+X+X+X",
"+X+X+X+X+X+X+X+X+X+X+X+X+X+X+X+X+X+X+X+X+X+X+X+X@.#.;.P.;.c f d s s s  .i.P @.*.+X+X+X+X+X+X+X+X+X+X+X+X+X+X+X+X+X+X+X+X+X+X+X+X",
"+X+X+X+X+X+X+X+X+X+X+X+X+X+X+X+X+X+X+X+X+X+X+X+X@.y.!./.=.j d a t t r { &.F %.} +X+X+X+X+X+X+X+X+X+X+X+X+X+X+X+X+X+X+X+X+X+X+X+X",
"+X+X+X+X+X+X+X+X+X+X+X+X+X+X+X+X+X+X+X+X+X+X+X*.@.5.(.0.b h i t r t r | &.D H *.+X+X+X+X+X+X+X+X+X+X+X+X+X+X+X+X+X+X+X+X+X+X+X+X",
"+X+X+X+X+X+X+X+X+X+X+X+X+X+X+X+X+X+X+X+X+X+X+X*.3.E.F.J h u t t t e q g B A D I +XQ.+X+X+X+X+X+X+X+X+X+X+X+X+X+X+X+X+X+X+X+X+X+X",
"+X+X+X+X+X+X+X+X+X+X+X+X+X+X+X+X+X+X+X+X+X+X+X*.4.).=.v u e r e e 7 % 7 s v S %.+X^.+X+X+X+X+X+X+X+X+X+X+X+X+X+X+X+X+X+X+X+X+X+X",
"+X+X+X+X+X+X+X+X+X+X+X+X+X+X+X+X+X+X+X+X+X+X+X:.P.(.&.h 4 i e - - 0 q 9 s v L @.+XQ.+X+X+X+X+X+X+X+X+X+X+X+X+X+X+X+X+X+X+X+X+X+X",
"+X+X+X+X+X+X+X+X+X+X+X+X+X+X+X+X+X+X+X+X+X+X+X#.P.E.H p r u 4 = * 2 e 9 s v H @.q.Q.+X+X+X+X+X+X+X+X+X+X+X+X+X+X+X+X+X+X+X+X+X+X",
"+X+X+X+X+X+X+X+X+X+X+X+X+X+X+X+X+X+X+X+X+X+X+X@.R.w.l u r e - * @ = e e p v D %.8.U.+X+X+X+X+X+X+X+X+X+X+X+X+X+X+X+X+X+X+X+X+X+X",
"+X+X+X+X+X+X+X+X+X+X+X+X+X+X+X+X+X+X+X+X+X+X*.6.D.;.c s a e = & & = e e p v D %.8.N.[ +X+X+X+X+X+X+X+X+X+X+X+X+X+X+X+X+X+X+X+X+X",
"+X+X+X+X+X+X+X+X+X+X+X+X+X+X+X+X+X+X+X+X+X+X+XH.K.F c s q 5 ; & & * 2 e s v D %.8.! +X+X+X+X+X+X+X+X+X+X+X+X+X+X+X+X+X+X+X+X+X+X",
"+X+X+X+X+X+X+X+X+X+X+X+X+X+X+X+X+X+X+X+X+X+X+XD.`.b l w 1 % $ & & & - t f j D *.i.g.+X+X+X+X+X+X+X+X+X+X+X+X+X+X+X+X+X+X+X+X+X+X",
"+X+X+X+X+X+X+X+X+X+X+X+X+X+X+X+X+X+X+X+X+X+X+XL.r.D x 1 5 2 & # + & - e s j D 1.U.g.+X+X+X+X+X+X+X+X+X+X+X+X+X+X+X+X+X+X+X+X+X+X",
"+X+X+X+X+X+X+X+X+X+X+X+X+X+X+X+X+X+X+X+X+X+X+Xv.U v x 9 6 - & o O & - 4 t j b 1.I.! +X+X+X+X+X+X+X+X+X+X+X+X+X+X+X+X+X+X+X+X+X+X",
"+X+X+X+X+X+X+X+X+X+X+X+X+X+X+X+X+X+X+X+X+X+X' n.H c s y 0 - +     + - e 4 h D 1.s.] +X+X+X+X+X+X+X+X+X+X+X+X+X+X+X+X+X+X+X+X+X+X",
"+X+X+X+X+X+X+X+X+X+X+X+X+X+X+X+X+X+X+X+X+X+Xh.r.F c f a 0 - o X   + 2 t 4 j D #.v.( +X+X+X+X+X+X+X+X+X+X+X+X+X+X+X+X+X+X+X+X+X+X",
"+X+X+X+X+X+X+X+X+X+X+X+X+X+X+X+X+X+X+X+X+X_ B.q.S c d 0 4 - +   . & 2 r u z D 1.v.+X+X+X+X+X+X+X+X+X+X+X+X+X+X+X+X+X+X+X+X+X+X+X",
"+X+X+X+X+X+X+X+X+X+X+X+X+X+X+X+X+X+X+X+X+X] s.3.N c d e 0 - & o o & 2 t s v F y.c.+X+X+X+X+X+X+X+X+X+X+X+X+X+X+X+X+X+X+X+X+X+X+X",
"+X+X+X+X+X+X+X+X+X+X+X+X+X+X+X+X+X+X+X+X+X_ z.*.F v f e 0 - & & & & - 4 s v F p.c.+X+X+X+X+X+X+X+X+X+X+X+X+X+X+X+X+X+X+X+X+X+X+X",
"+X+X+X+X+X+X+X+X+X+X+X+X+X+X+X+X+X+X+X+X+X( Q %.S v h 0 4 - & & & & = 2 i v F p.c.+X+X+X+X+X+X+X+X+X+X+X+X+X+X+X+X+X+X+X+X+X+X+X",
"+X+X+X+X+X+X+X+X+X+X+X+X+X+X+X+X+X+X+X+X+X_ z.*.S A h a e 4 * & & & = e p v F p.c.+X+X+X+X+X+X+X+X+X+X+X+X+X+X+X+X+X+X+X+X+X+X+X",
"+X+X+X+X+X+X+X+X+X+X+X+X+X+X+X+X+X+X+X+X+X` M.>.S A c h r 0 = & # * - y p v F p.c.+X+X+X+X+X+X+X+X+X+X+X+X+X+X+X+X+X+X+X+X+X+X+X",
"+X+X+X+X+X+X+X+X+X+X+X+X+X+X+X+X+X+X+X+X+X` {.Z.S A v h t - = # & = 6 w p v F d.! +X+X+X+X+X+X+X+X+X+X+X+X+X+X+X+X+X+X+X+X+X+X+X",
"+X+X+X+X+X+X+X+X+X+X+X+X+X+X+X+X+X+X+X+X+X[ N.m.S A v z t - = * ; - 2 e f A U t.` +X+X+X+X+X+X+X+X+X+X+X+X+X+X+X+X+X+X+X+X+X+X+X",
"+X+X+X+X+X+X+X+X+X+X+X+X+X+X+X+X+X+X+X+X+XN.a.@.L D D v r - 2 - 2 : 5 e d v w.J.o.+X+X+X+X+X+X+X+X+X+X+X+X+X+X+X+X+X+X+X+X+X+X+X",
"+X+X+X+X+X+X+X+X+X+X+X+X+X+X+X+X+X+X+X+X+XW.Y.#.X.D A c t : , 2 2 > 7 a f N _.S.:.+X+X+X+X+X+X+X+X+X+X+X+X+X+X+X+X+X+X+X+X+X+X+X",
"+X+X+X+X+X+X+X+X+X+X+X+X+X+X+X+X+X+X+X+X+XW.I.>.I Y K c p 5 % , 2 8 r i l =.A.,.>.+X+X+X+X+X+X+X+X+X+X+X+X+X+X+X+X+X+X+X+X+X+X+X",
"+X+X+X+X+X+X+X+X+X+X+X+X+X+X+X+X+X+X+X+X+X+X[.Z.C ;.P.O.j a 7 6 2 0 u s n F.5.} :.+X+X+X+X+X+X+X+X+X+X+X+X+X+X+X+X+X+X+X+X+X+X+X",
"+X+X+X+X+X+X+X+X+X+X+X+X+X+X+X+X+X+X+X+X+X+X}.oXx.2.).G.b f a 0 2 r p s B A.4.} +X+X+X+X+X+X+X+X+X+X+X+X+X+X+X+X+X+X+X+X+X+X+X+X",
"+X+X+X+X+X+X+X+X+X+X+X+X+X+X+X+X+X+X+X+X+X+X}.OXm.R s.G.b f u t e e p j +.A.@.@.+X+X+X+X+X+X+X+X+X+X+X+X+X+X+X+X+X+X+X+X+X+X+X+X",
"+X+X+X+X+X+X+X+X+X+X+X+X+X+X+X+X+X+X+X+X+X+X{.OXB.R ! J.&.d t d u 0 a z 8.>.@.@.+X+X+X+X+X+X+X+X+X+X+X+X+X+X+X+X+X+X+X+X+X+X+X+X",
"+X+X+X+X+X+X+X+X+X+X+X+X+X+X+X+X+X+X+X+X+X+X[..Xn.Z Q `.9.z d f r 2 i h K I @.+X+X+X+X+X+X+X+X+X+X+X+X+X+X+X+X+X+X+X+X+X+X+X+X+X",
"+X+X+X+X+X+X+X+X+X+X+X+X+X+X+X+X+X+X+X+X+X+XQ.+X:.%.^ k.<.A z d 4 e h c N @.*.+X+X+X+X+X+X+X+X+X+X+X+X+X+X+X+X+X+X+X+X+X+X+X+X+X",
"+X+X+X+X+X+X+X+X+X+X+X+X+X+X+X+X+X+X+X+X+X+X+X+X} } W j.H.J c d e h v D C @.@.+X+X+X+X+X+X+X+X+X+X+X+X+X+X+X+X+X+X+X+X+X+X+X+X+X",
"+X+X+X+X+X+X+X+X+X+X+X+X+X+X+X+X+X+X+X+X+X+X+X+X+X..C Q C.U v f a v D G @.@.+X+X+X+X+X+X+X+X+X+X+X+X+X+X+X+X+X+X+X+X+X+X+X+X+X+X",
"+X+X+X+X+X+X+X+X+X+X+X+X+X+X+X+X+X+X+X+X+X+X+X+X+X:...E l.F.b v z D L %.@.@.+X+X+X+X+X+X+X+X+X+X+X+X+X+X+X+X+X+X+X+X+X+X+X+X+X+X",
"+X+X+X+X+X+X+X+X+X+X+X+X+X+X+X+X+X+X+X+X+X+X+X+X+X+X#...w.].2.D D F I @.@.*.+X+X+X+X+X+X+X+X+X+X+X+X+X+X+X+X+X+X+X+X+X+X+X+X+X+X",
"+X+X+X+X+X+X+X+X+X+X+X+X+X+X+X+X+X+X+X+X+X+X+X+X+X+X..} e.'.R.Y G I @.@.*.+X+X+X+X+X+X+X+X+X+X+X+X+X+X+X+X+X+X+X+X+X+X+X+X+X+X+X",
"+X+X+X+X+X+X+X+X+X+X+X+X+X+X+X+X+X+X+X+X+X+X+X+X+X+X>...+Xw.].6.%.@.@.@.*.+X+X+XQ.+X+X+X+X+X+X+X+X+X+X+X+X+X+X+X+X+X+X+X+X+X+X+X",
"+X+X+X+X+X+X+X+X+X+X+X+X+X+X+X+X+X+X+X+X+X+X+X+X+X+X+X:.+X+Xu.I.u.@.@.@.9.+X+X+X+X+X+X+X+X+X+X+X+X+X+X+X+X+X+X+X+X+X+X+X+X+X+X+X",
"+X+X+X+X+X+X+X+X+X+X+X+X+X+X+X+X+X+X+X+X+X+X+X+X+X+X+X+X*.*.7.U.I.4.1.+XU.W.+X+X+X+X+X+X+X+X+X+X+X+X+X+X+X+X+X+X+X+X+X+X+X+X+X+X",
"+X+X+X+X+X+X+X+X+X+X+X+X+X+X+X+X+X+X+X+X+X+X+X+X+X+X+X+X*.*.f.! T.I.I.U.U.Q.+X+X+X+X+X+X+X+X+X+X+X+X+X+X+X+X+X+X+X+X+X+X+X+X+X+X",
"+X+X+X+X+X+X+X+X+X+X+X+X+X+X+X+X+X+X+X+X+X+X+X+X+X+X+X+X+X+X+X( b.T.U.c.~ +X+X+X+X+X+X+X+X+X+X+X+X+X+X+X+X+X+X+X+X+X+X+X+X+X+X+X",
"+X+X+X+X+X+X+X+X+X+X+X+X+X+X+X+X+X+X+X+X+X+X+X+X+X+X+X+X+X+X+X+X_ ] ~ _ +X+X+X+X+X+X+X+X+X+X+X+X+X+X+X+X+X+X+X+X+X+X+X+X+X+X+X+X",
"+X+X+X+X+X+X+X+X+X+X+X+X+X+X+X+X+X+X+X+X+X+X+X+X+X+X+X+X+X+X+X+X+X+X+X+X+X+X+X+X+X+X+X+X+X+X+X+X+X+X+X+X+X+X+X+X+X+X+X+X+X+X+X+X",
"+X+X+X+X+X+X+X+X+X+X+X+X+X+X+X+X+X+X+X+X+X+X+X+X+X+X+X+X+X+X+X+X+X+X+X+X+X+X+X+X+X+X+X+X+X+X+X+X+X+X+X+X+X+X+X+X+X+X+X+X+X+X+X+X",
"+X+X+X+X+X+X+X+X+X+X+X+X+X+X+X+X+X+X+X+X+X+X+X+X+X+X+X+X+X+X+X+X+X+X+X+X+X+X+X+X+X+X+X+X+X+X+X+X+X+X+X+X+X+X+X+X+X+X+X+X+X+X+X+X",
"+X+X+X+X+X+X+X+X+X+X+X+X+X+X+X+X+X+X+X+X+X+X+X+X+X+X+X+X+X+X+X+X+X+X+X+X+X+X+X+X+X+X+X+X+X+X+X+X+X+X+X+X+X+X+X+X+X+X+X+X+X+X+X+X"
};
