/* XPM */
static char *_54ccb172bc848468e13bb07d5d1bfb65rpBq5shQgUr313L[] = {
/* columns rows colors chars-per-pixel */
"64 64 204 2 ",
"   c None",
".  c #1E3A2D",
"X  c #272421",
"o  c #292623",
"O  c #2C2926",
"+  c #2E2B28",
"@  c #312E2C",
"#  c #213A2D",
"$  c #2A362B",
"%  c #34312E",
"&  c #303726",
"*  c #3C3733",
"=  c #443E3A",
"-  c #1A4531",
";  c #1E4A33",
":  c #1F5032",
">  c #17432F",
",  c #214A37",
"<  c #234C39",
"1  c #214735",
"2  c #215433",
"3  c #245B33",
"4  c #32543C",
"5  c #276134",
"6  c #296635",
"7  c #2B6B35",
"8  c #37653D",
"9  c #2E7236",
"0  c #327B37",
"q  c #39723C",
"w  c #377A3A",
"e  c #47433C",
"r  c #485225",
"t  c #497232",
"y  c #385843",
"u  c #3D6C43",
"i  c #4C4741",
"p  c #534D46",
"a  c #59534C",
"s  c #5A5645",
"d  c #455A4B",
"f  c #605952",
"g  c #406444",
"h  c #53724F",
"j  c #69625A",
"k  c #6B655B",
"l  c #617958",
"z  c #766E62",
"x  c #81776F",
"c  c #358137",
"v  c #398B38",
"b  c #3A853A",
"n  c #3D9439",
"m  c #3F993A",
"M  c #5A882A",
"N  c #429D3A",
"B  c #43943D",
"V  c #64893A",
"C  c #668924",
"Z  c #45A43B",
"A  c #47AA3C",
"S  c #49AD3C",
"D  c #48A73D",
"F  c #5BA33A",
"G  c #4BB53D",
"H  c #4DB83D",
"J  c #51BA3F",
"K  c #5CB53F",
"L  c #6ABE3B",
"P  c #6AC43E",
"I  c #6FC83C",
"U  c #79CF36",
"Y  c #73CA3A",
"T  c #78CC36",
"R  c #7ED133",
"E  c #57854D",
"W  c #759645",
"Q  c #7E885C",
"!  c #698B55",
"~  c #56A245",
"^  c #58A544",
"/  c #5CB343",
"(  c #54BB41",
")  c #59BE42",
"_  c #5AB148",
"`  c #5EB255",
"'  c #63BB43",
"]  c #6CB74B",
"[  c #79B359",
"{  c #6BB353",
"}  c #65B868",
"|  c #68B679",
" . c #70AC70",
".. c #5EC143",
"X. c #65C342",
"o. c #6AC443",
"O. c #6EC549",
"+. c #6CC948",
"@. c #73CD4B",
"#. c #71C445",
"$. c #7CD24F",
"%. c #7FD350",
"&. c #72C17D",
"*. c #9AB734",
"=. c #91AC30",
"-. c #A3BC24",
";. c #A1BB2D",
":. c #86D82F",
">. c #8BDB2D",
",. c #91DE29",
"<. c #86C833",
"1. c #84D534",
"2. c #97DB3C",
"3. c #A9C328",
"4. c #B2CC2D",
"5. c #B1D331",
"6. c #99E526",
"7. c #9EE923",
"8. c #9AE42A",
"9. c #95E327",
"0. c #A3EB25",
"q. c #A5EC2A",
"w. c #A7E72F",
"e. c #A7F028",
"r. c #C2DE34",
"t. c #868458",
"y. c #81B856",
"u. c #92AD4A",
"i. c #A4B355",
"p. c #A1B04E",
"a. c #888B6A",
"s. c #89897D",
"d. c #888476",
"f. c #92897C",
"g. c #929770",
"h. c #86B874",
"j. c #98B370",
"k. c #A1A277",
"l. c #DBBD4E",
"z. c #85C743",
"x. c #8EC85A",
"c. c #85D752",
"v. c #8CDB55",
"b. c #92DE57",
"n. c #95DF58",
"m. c #9ADD5B",
"M. c #91C04E",
"N. c #ADC146",
"B. c #A9D85D",
"V. c #B1D259",
"C. c #9DE45B",
"Z. c #96E059",
"A. c #96E240",
"S. c #AEE244",
"D. c #A2E65D",
"F. c #A6E95F",
"G. c #AAEB5F",
"H. c #B9E25D",
"J. c #8ED868",
"K. c #ABEB61",
"L. c #AAEA64",
"P. c #BAEB72",
"I. c #B1CB6F",
"U. c #EBCC68",
"Y. c #C2EA7B",
"T. c #1EBEB8",
"R. c #28B5B2",
"E. c #74B59A",
"W. c #4CAAA3",
"Q. c #4BAAAA",
"!. c #41ACAB",
"~. c #5AB4AA",
"^. c #66B3AA",
"/. c #6CB7B3",
"(. c #75B9A8",
"). c #0BC2BD",
"_. c #10C1BB",
"`. c #6BCBB4",
"'. c #1CC6C1",
"]. c #29C8C1",
"[. c #5FD4D0",
"{. c #6DD0CC",
"}. c #71CEC8",
"|. c #998E83",
" X c #968C81",
".X c #9D9385",
"XX c #A09586",
"oX c #A49B87",
"OX c #A0958A",
"+X c #84BB97",
"@X c #AEA687",
"#X c #B3AC8A",
"$X c #BBB68B",
"%X c #B6B888",
"&X c #C2BD8D",
"*X c #C5BF94",
"=X c #C6C788",
"-X c #C9C592",
";X c #C5C191",
":X c #EBD986",
">X c #D4E98E",
",X c #D9E995",
"<X c #EBE8A8",
"1X c #8EDBCA",
/* pixels */
"                                                                                                                                ",
"                                                                                                                                ",
"                                                      y                                                                         ",
"                                                    y y y                                                                       ",
"                                                  q u q q u             4 4       K.L.                                          ",
"                                          u 8 8 t ) ) ..( m 8 4 4 4 4 4 g h   L.K.K.K.K.                                        ",
"                    < - ;     , - ; - - - w A S ..C.C.Z.( G A q 4 4 4 g x.F.K.K.K.L.K.K.K.L.          <X<X<X                    ",
"                    1 - - ; ; - - - - - - 0 G G ( ..X...( G G A Z Z Z S C.K.K.K.L.  L.K.K.L.K.K.P.<X<X<XU.U.                    ",
"                    < - - 6 b : - - 9 v v c w ( H H +.$.H H H H H H H ) C.K.K.K.K.L.    L.K.K.K.L.Y.,X<X:X:X                    ",
"                    ; - . 0 ( 3 - - n ( G ~ c S H H v.F...H H G H H G J $.b.K.K.K.K.L.  K.K.F.K.L.K.P.>X<X<X                    ",
"                  ; - - > c S : > - 0 Z m A H H H H $.v.J H H H H H ) X.X.$.K.K.K.K.K.K.K.F.K.L.K.H.H.H.,X,X  M.u.              ",
"                  - - - > 0 A 5 - > : : : c H H H H H H H H H H H H %.F.C.C.C.K.K.K.K.K.K.L.D.L.H.l.l.l.H.K.K.                  ",
"            ; ; - - - - > ; : ; - - c Z Z G H H H H H H H H H H H H c.C.+.....b.K.K.K.G.K.b...W Q t.t.t.B.K.K.                  ",
"          < - - - - - - - - - > > ; 3 0 G H H H H H H H G H H H G H ..X.H G H v.K.K.K.G.K.C.v.' ~ ~ ^ ^ Z.K.K.K.K.              ",
"            ;   : - - - > 5 c c 9 > > : S Z b ^ H H X.$.$.+.H H H H H G H ..$.C.K.K.K.G.K.K.K.v.$.$.$.%.F.K.K.K.K.              ",
"                y - - - > 7 n ( m > ; : v b w A H H @.Z.K.%.H H H H H H H X.v.L.F.b.C.G.K.K.K.K.K.K.K.K.K.K.K.K.K.              ",
"              ; - - - - - - ; n v ; - - - 9 Z Z A H H ..b.$.G H H H H H H H H c.c...$.F.C.C.C.D.K.K.K.G.K.K.G.K.K.              ",
"    < ; ; - ; - - - - - - - ; ; ; > - - - ; : : 9 G H H ( ( H H H H H H H H H ( ..H $.C.X.( ..b.K.K.F.F.F.K.K.F.K.              ",
"    < - - - - - - - > ; > - - - - - - > - - ; v A G G G G H H H H H H H H H H H G G ....H X.Z.D.K.K.v.X.C.G.F.$...( ( ( ( (     ",
"          < - - - - - > - - - > 3 v v c ; > - 7 9 9 N ( G H H H H H H H H ..%...G H H H H ..@.@.@.@...H +.@.@.J H H H G G (     ",
"            < ; - - - - ; : 9 ; 3 v A S 0 5 > > > - 9 n G H H ( H H H H +.v.K.c.+.H H H H H H H G H H H H H G H H H H G (       ",
"              ; - - - - > 0 G 9 : > c Z H c > ; - - - : n N N m Z H H ( v.Z.Z.Z.%.H H H H ( X.....H H H H H H H G H H (         ",
"              ; - - - - > 0 ( A m : ; 3 Z c - - - - > ; ; ; : : 7 G H G S G J J J H H H H X.C.C.b.H H H H H H H H H ( G         ",
"              ; - - - > - : 3 Z G Z 7 - 2 ; - - > ; > > > > - v A G H S 5 c H H H H H H H J ) ) ..H H H H H H H H H G (         ",
"              ; - - - - - - - 3 7 7 : - - - > - - - - - ; > ; 6 7 7 n ( ; 9 H H H H H H H m 7 N H H H H H H H H H H ( (         ",
"              ; - - - - - - - - > > - - - - - - - - . - > > > > > - 5 0 ; : c A S c Z H H n - n G c m H H H H H H H (           ",
"              ; - - - - - - - - - - - - - - - > : 6 7 7 7 : - - - < ; ; ; - - 0 c > 9 n m 0 - 0 v - 7 n n n n n n n b           ",
"            ; ; ; ; - - - - - - - - - - - - - - 3 Z Z Z ~ 0 - - ;       ; - - : 3 3 ; - - - - - - - - - ; ; ; - ; ; ; ;         ",
"                    < - - - - - - - - - - - - - > : : : : ; - - ;   y ; > - - v A G 0 - - - - - - - - - ; - - - ;               ",
"                        ; - - - - > - - - - - - > ; - - - - ;       - - - - ; 2 9 G A n 2 - - - - - - ;                         ",
"                          < - - - - - - - > - - > - - - - <             - - - > ; 9 9 7 ; - - - ;                               ",
"                            - - - , ; 1 # # # d h l y - ;                 ; : # # . . - - - - - ;                               ",
"                            ; , <       @ + + j f.$X;X                        + O X # , ; 1 ; ; <                               ",
"                                            o + e d.#X;X                + o + o X O                                             ",
"                                            o o @ % z oX&X;X      + + o o o o o +                                               ",
"                                              + o o * i s e + @ + o o o o o o %                                                 ",
"                                              @ o o o X X X o o o o o o a a                                                     ",
"                                              % + o o o o o o o o o * a  X.X                                                    ",
"                                                  o o o o o o X o o j |.|..X                                                    ",
"                                                  + o o o o o + + o j |..X.X                                                    ",
"                                                    @ O X X + k k o j .X$X$X                                                    ",
"                                                    @ X X e k a i o j OX&X-X                                                    ",
"                                                    % o X a |.= X X j .X&X-X                                                    ",
"                                                    % o X a  Xe X o j OX&X-X                                                    ",
"                                    s.s.            @ o X p d.e X X j .X&X-X                                                    ",
"                                    s.f.            % X X @ % O o o j XX&X-X      q.                                            ",
"                              s.    N.i.          e.t X X O o o o X j XX&X-X      0.0.q.                                        ",
"                              i.i.  4.3.g.        C r X X X o X % f x .X@X#X-XS.q.  0.0.    q.                                  ",
"                              r.r.  3.*.d.g.    * o = i s e X X =  XoXoX|.oX$XV.S.  2.A.  q.0.                                  ",
"                                  5.4.;.a.p.4.r @ & k .X=Xa.& & e  X#X*Xk.g.g.%XI.8.z.y.8.7.8.                                  ",
"                                  5.3.-.4.p.a.V M M t..X;Xj.~ M !  X#X=Xw.1.' #.@.P :.8.0.>.P ,.8.P     q.0.                    ",
"                              E W 3.-.-.3.u.x V M M V W %Xj._ R =.! k.=Xw.>.P :.>.o.P Y Y Y o.,.6.P o.o.8.0.                    ",
"                            ;.=.=.-.-.*.h.j.u. . .F F F [ [ G ,.>.~ { x.1.Y P 9.6.P T :.P Y >.<.z.>.T P U 1.                    ",
"                            *.y.y.[ =.*.^.h.-.+X(.| ` _ } | E.J.J.( K K ' ) / R :.P :.7.I I >.] { :.T X.X.X.                    ",
"                              Q.Q.Q.[ [ W.| u.E././.| } ~.[.}.[.`.&.} } _ / L L X.P :.7.I P ' P L P X.L o.O.                    ",
"                                    W.W.W.W.W.Q.Q.Q.~./.T.T.T.T.].}.1X1X{ T 7.T X.' 1.9.I X.P P P X.o.o.                        ",
"                                                  Q.Q.Q.!.R.).)._._.[.1X2.e.0.U ' { { I o.o.X.>.9.P O.                          ",
"                                                                                        o.o.P Y Y o.O.                          ",
"                                                                                          O.o.O.                                ",
"                                                                                            o.                                  ",
"                                                                                                                                ",
"                                                                                                                                ",
"                                                                                                                                ",
"                                                                                                                                "
};
